<svg xmlns="http://www.w3.org/2000/svg" xmlns:xlink="http://www.w3.org/1999/xlink" width="50px" height="25px" viewBox="0 0 230 272" version="1.1">
<g id="surface3">
<path style=" stroke:none;fill-rule:nonzero;fill:rgb(100%,100%,100%);fill-opacity:1;" d="M 210.476562 247.464844 C 209.851562 247.910156 209.140625 248.355469 208.515625 248.800781 C 207.800781 249.246094 207.179688 249.6875 206.464844 250.042969 C 205.839844 250.398438 205.304688 250.753906 204.683594 251.109375 C 204.59375 251.199219 204.503906 251.199219 204.414062 251.289062 C 202.363281 252.535156 200.226562 253.6875 198.085938 254.753906 C 197.460938 255.109375 196.75 255.464844 196.125 255.734375 C 196.125 255.734375 196.035156 255.820312 195.945312 255.820312 L 193.804688 256.890625 C 192.378906 257.601562 190.863281 258.222656 189.4375 258.84375 C 188.726562 259.199219 187.921875 259.464844 187.210938 259.734375 C 186.496094 260 185.695312 260.355469 184.980469 260.621094 C 184.265625 260.890625 183.464844 261.246094 182.75 261.511719 L 182.664062 261.511719 C 181.949219 261.777344 181.148438 262.042969 180.433594 262.3125 C 178.828125 262.84375 177.136719 263.378906 175.53125 263.910156 C 174.996094 264.089844 174.371094 264.265625 173.835938 264.445312 C 172.144531 264.976562 170.449219 265.421875 168.753906 265.777344 C 168.132812 265.957031 167.507812 266.042969 166.792969 266.222656 C 165.191406 266.578125 163.496094 266.933594 161.890625 267.289062 C 161.535156 267.378906 161.265625 267.378906 160.910156 267.464844 C 160.375 267.554688 159.75 267.644531 159.21875 267.734375 C 158.414062 267.820312 157.703125 268 156.898438 268.089844 C 156.542969 268.179688 156.1875 268.179688 155.828125 268.265625 C 155.382812 268.355469 154.847656 268.445312 154.3125 268.445312 C 152.886719 268.621094 151.371094 268.800781 149.945312 268.976562 C 149.5 269.066406 148.964844 269.066406 148.519531 269.15625 L 148.429688 269.15625 C 147.804688 269.246094 147.183594 269.246094 146.558594 269.332031 C 145.933594 269.421875 145.308594 269.421875 144.6875 269.421875 C 144.328125 269.421875 143.882812 269.511719 143.527344 269.511719 C 142.8125 269.511719 142.191406 269.601562 141.566406 269.601562 C 140.675781 269.601562 139.871094 269.6875 138.980469 269.6875 L 134.523438 269.6875 C 96.902344 269.15625 63.117188 253.246094 38.957031 228 C 38.957031 228 38.957031 227.910156 38.867188 227.910156 C 36.195312 225.511719 38.511719 212.710938 49.296875 204.621094 C 62.847656 194.398438 95.296875 188 95.296875 188 C 95.296875 188 107.867188 185.957031 154.492188 195.644531 C 181.769531 201.332031 202.542969 209.601562 214.132812 232 C 216.539062 236.621094 218.945312 243.734375 210.476562 247.464844 Z M 210.476562 247.464844 "/>
<path style=" stroke:none;fill-rule:nonzero;fill:rgb(0%,0%,0%);fill-opacity:1;" d="M 154.757812 194.667969 C 171.875 198.132812 190.152344 201.867188 204.238281 213.15625 C 208.960938 216.976562 212.082031 222.578125 214.667969 228 C 215.914062 230.667969 217.164062 233.421875 218.144531 236.355469 C 218.679688 238.3125 219.480469 240.535156 219.035156 242.84375 C 218.945312 243.464844 218.410156 244.265625 217.964844 244.710938 C 215.914062 246.753906 213.6875 248 211.457031 249.601562 C 198.351562 258.667969 183.285156 265.066406 167.6875 268.445312 C 132.917969 276 95.296875 270.132812 64.722656 251.910156 C 54.558594 245.777344 45.199219 238.3125 37.175781 229.511719 C 36.28125 228.445312 36.28125 226.667969 36.28125 225.511719 C 36.371094 222.84375 37.085938 220.265625 37.976562 217.867188 C 40.117188 212.355469 42.878906 206.84375 47.605469 203.023438 C 50.992188 200.710938 54.648438 198.753906 58.390625 197.15625 C 70.160156 192.179688 82.550781 188.710938 95.296875 187.289062 C 96.367188 187.199219 96.546875 188.710938 95.476562 188.890625 C 83.261719 191.378906 71.140625 195.109375 59.816406 200.179688 C 55.71875 202.222656 51.347656 204 48.050781 207.199219 C 44.929688 210.578125 42.703125 214.753906 40.917969 219.023438 C 39.757812 221.601562 38.957031 225.6875 39.3125 227.734375 C 44.929688 234.398438 51.527344 240.265625 58.660156 245.332031 C 97.707031 272.535156 156.988281 274.3125 198.53125 251.644531 C 202.273438 249.601562 205.929688 247.289062 209.40625 244.890625 C 211.101562 243.734375 212.882812 242.753906 214.222656 241.421875 C 214.308594 241.332031 214.222656 241.421875 214.222656 241.511719 C 214.222656 241.601562 214.132812 241.6875 214.132812 241.6875 C 214.222656 240.621094 213.863281 239.199219 213.417969 237.777344 C 211.8125 232.621094 209.230469 227.199219 206.464844 222.488281 C 202.097656 215.464844 194.699219 211.023438 187.210938 207.464844 C 182.039062 205.066406 176.601562 203.199219 171.074219 201.421875 C 165.546875 199.644531 159.929688 198.132812 154.3125 196.800781 C 152.886719 196.445312 153.332031 194.398438 154.757812 194.667969 Z M 154.757812 194.667969 "/>
<path style="fill-rule:nonzero;fill:rgb(0%,0%,0%);fill-opacity:1;stroke-width:5.126;stroke-linecap:round;stroke-linejoin:round;stroke:rgb(0%,0%,0%);stroke-opacity:1;stroke-miterlimit:10;" d="M 116.498743 220.798828 C 116.498743 220.798828 114.500645 208.401855 111.100374 209.100586 C 102.998437 210.999023 76.799694 216.500977 60.801766 225.101074 C 57.300713 226.999512 54.798709 228.498047 51.801562 231.301758 C 46.29803 236.500488 42.499015 250.000488 37.898132 266.400879 C 28.100442 301.5 16.401053 340.299316 16.401053 340.299316 L 269.300645 340.299316 C 269.300645 340.299316 253.499898 321.398438 248.500272 288 C 243.798607 256.601074 234.500442 245.29834 232.901087 243.298828 C 228.501766 237.80127 208.301698 226.700684 198.499626 222.499512 C 183.500747 216.101074 168.401087 229.5 164.098166 229.201172 C 156.500136 228.999023 116.498743 220.798828 116.498743 220.798828 Z M 116.498743 220.798828 " transform="matrix(0.891473,0,0,0.888889,0,0)"/>
<path style="fill:none;stroke-width:3;stroke-linecap:round;stroke-linejoin:round;stroke:rgb(100%,100%,100%);stroke-opacity:1;stroke-miterlimit:10;" d="M 65.902174 340.400391 L 61.402072 303.301758 M 240.599898 290.698242 C 240.599898 290.698242 237.602751 298.001953 238.501019 305.30127 C 239.399287 312.600586 242.002072 323.30127 238.299457 340.400391 " transform="matrix(0.891473,0,0,0.888889,0,0)"/>
<path style=" stroke:none;fill-rule:nonzero;fill:rgb(100%,100%,100%);fill-opacity:1;" d="M 93.515625 176.890625 C 93.515625 176.890625 87.097656 179.199219 85.9375 180.445312 C 84.777344 181.6875 84.246094 182.488281 84.246094 182.488281 C 84.246094 182.488281 81.035156 186.042969 79.25 194.667969 C 78.449219 198.3125 80.320312 204.265625 78.894531 208.976562 C 74.792969 222.042969 94.230469 242.132812 126.320312 253.957031 C 150.660156 262.933594 177.492188 254.753906 181.238281 237.867188 C 184.800781 221.601562 182.664062 214.222656 180.96875 208.976562 C 177.582031 198.84375 176.511719 196 171.964844 192.089844 C 169.113281 189.601562 167.152344 194.753906 156.453125 197.6875 C 153.15625 198.578125 149.144531 199.289062 143.972656 199.464844 C 113.21875 200.621094 112.503906 182.042969 107.867188 177.15625 C 106.796875 176.089844 100.738281 174.3125 93.515625 176.890625 Z M 93.515625 176.890625 "/>
<path style=" stroke:none;fill-rule:nonzero;fill:rgb(0%,0%,0%);fill-opacity:1;" d="M 94.050781 178.132812 C 91.734375 179.023438 89.058594 179.910156 87.007812 181.332031 C 86.472656 181.867188 85.847656 182.667969 85.3125 183.289062 C 83.53125 185.601562 82.371094 188.535156 81.480469 191.289062 C 80.5 194.222656 80.144531 196.890625 80.5 200 C 80.679688 202.753906 80.945312 205.777344 80.320312 208.535156 C 79.25 211.644531 79.519531 214.933594 80.765625 218.042969 C 87.898438 236.355469 122.042969 254.042969 141.03125 255.820312 C 154.9375 257.246094 174.28125 253.421875 179.542969 238.933594 C 182.21875 228.621094 183.285156 217.421875 179.363281 207.378906 C 177.847656 203.109375 176.601562 198.398438 173.75 194.933594 C 173.300781 194.398438 172.765625 193.867188 172.234375 193.332031 L 171.429688 192.621094 C 171.164062 192.445312 170.984375 192.265625 170.71875 192.265625 C 169.558594 192.089844 168.132812 193.246094 167.0625 193.867188 C 159.039062 199.109375 149.054688 200.445312 139.605469 200.089844 C 130.15625 199.910156 119.992188 197.066406 114.109375 189.246094 C 111.167969 185.777344 109.828125 181.332031 107.15625 177.867188 L 107.066406 177.777344 L 106.886719 177.6875 C 102.785156 176 97.972656 176.621094 94.050781 178.132812 Z M 93.335938 176.179688 C 97.972656 174.488281 103.765625 173.601562 108.226562 176.089844 C 109.382812 177.15625 110.097656 178.753906 110.808594 180.179688 C 112.148438 183.023438 113.394531 185.777344 115.179688 188.265625 C 120.4375 196.179688 130.421875 198.753906 139.515625 198.753906 C 145.667969 198.84375 151.996094 198.3125 157.789062 196.355469 C 160.734375 195.378906 163.496094 194.042969 166.082031 192.355469 C 167.863281 191.199219 170.359375 189.421875 172.320312 191.289062 C 174.550781 193.066406 176.421875 195.378906 177.671875 197.867188 C 179.722656 202.222656 181.148438 206.667969 182.664062 211.199219 C 185.335938 220.535156 184.089844 230.3125 181.949219 239.554688 C 176.421875 255.734375 156.007812 259.910156 140.851562 258.3125 C 122.308594 256.355469 94.941406 241.867188 83.53125 227.109375 C 79.699219 222.042969 76.222656 215.644531 77.914062 209.066406 C 78.894531 206.222656 78.628906 203.199219 78.359375 200.089844 C 77.914062 196.976562 78.359375 193.601562 79.429688 190.578125 C 80.320312 187.554688 81.835938 184.179688 83.621094 181.957031 C 84.511719 180.800781 85.582031 179.464844 86.828125 178.84375 C 88.878906 177.777344 91.019531 176.800781 93.335938 176.179688 Z M 93.335938 176.179688 "/>
<path style=" stroke:none;fill-rule:nonzero;fill:rgb(0%,0%,0%);fill-opacity:1;" d="M 156.632812 198.933594 C 148.964844 200.621094 141.121094 200.621094 133.363281 200 C 123.023438 199.109375 112.503906 195.734375 105.105469 188.179688 C 103.234375 186.398438 101.539062 184.265625 99.847656 182.578125 C 99.3125 182.042969 99.3125 181.15625 99.847656 180.621094 C 100.378906 180.089844 101.363281 180.089844 101.808594 180.710938 C 103.5 182.84375 104.925781 184.800781 106.621094 186.667969 C 115.179688 196.265625 128.640625 199.023438 141.03125 198.667969 C 146.023438 198.488281 151.105469 198.042969 155.917969 196.445312 C 157.703125 195.820312 158.503906 198.488281 156.632812 198.933594 Z M 156.632812 198.933594 "/>
<path style=" stroke:none;fill-rule:nonzero;fill:rgb(100%,100%,100%);fill-opacity:1;" d="M 172.589844 188.890625 C 180.703125 195.644531 194.789062 213.332031 191.398438 252.890625 C 189.707031 272.445312 199.246094 280.535156 197.105469 283.644531 C 196.75 284.179688 196.304688 284.445312 195.945312 284.535156 C 194.429688 284.890625 193.003906 285.601562 192.292969 287.023438 C 192.023438 287.644531 191.578125 288.089844 190.953125 288.445312 C 190.417969 288.800781 189.796875 288.800781 189.261719 288.710938 C 187.386719 288.265625 185.339844 289.332031 184.179688 290.933594 C 183.734375 291.554688 183.199219 292 182.394531 292.179688 C 181.863281 292.355469 181.328125 292.265625 180.96875 292.179688 C 179.453125 291.734375 177.761719 292.179688 176.421875 293.246094 C 176.066406 293.511719 175.710938 293.6875 175.265625 293.6875 C 174.460938 293.6875 173.839844 293.332031 173.304688 292.800781 C 172.054688 291.644531 170.273438 291.199219 168.488281 291.820312 C 168.3125 291.910156 168.222656 291.910156 168.042969 291.910156 C 166.796875 292.089844 165.816406 291.109375 165.101562 289.421875 C 164.386719 287.820312 162.695312 287.109375 160.910156 287.289062 C 160.554688 287.289062 160.199219 287.289062 159.753906 287.199219 C 156.277344 286.398438 151.820312 281.601562 151.730469 275.734375 C 151.640625 269.957031 152.976562 259.910156 155.207031 255.199219 C 162.070312 240.710938 164.566406 230.3125 164.921875 222.488281 C 165.636719 208.179688 156.542969 195.378906 157.433594 195.109375 C 166.527344 193.246094 172.589844 188.890625 172.589844 188.890625 Z M 172.589844 188.890625 "/>
<path style=" stroke:none;fill-rule:nonzero;fill:rgb(0%,0%,0%);fill-opacity:1;" d="M 172.589844 187.554688 C 174.90625 188.800781 176.78125 191.109375 178.5625 193.066406 C 187.746094 204 191.578125 218.3125 192.648438 232.355469 C 193.003906 237.777344 193.09375 243.289062 192.648438 248.710938 L 192.378906 252.800781 C 191.757812 259.378906 192.378906 266.132812 194.609375 272.355469 C 195.5 274.84375 196.570312 277.246094 197.640625 279.820312 C 198.265625 281.246094 198.710938 283.378906 197.371094 284.621094 C 196.925781 285.246094 195.945312 285.421875 195.144531 285.6875 C 194.34375 285.957031 193.628906 286.398438 193.183594 287.109375 C 192.46875 288.621094 190.863281 289.957031 189.082031 289.601562 C 187.746094 289.246094 186.320312 289.867188 185.339844 290.84375 C 184.359375 292.179688 183.019531 293.332031 181.238281 293.066406 C 180.078125 292.800781 178.917969 292.621094 177.761719 293.246094 C 177.316406 293.421875 176.957031 293.777344 176.601562 294.042969 C 175.53125 294.667969 174.195312 294.488281 173.214844 293.867188 C 172.5 293.421875 172.324219 292.976562 171.699219 292.710938 C 170.808594 292.265625 169.648438 292.179688 168.667969 292.535156 C 166.4375 293.246094 164.835938 291.289062 164.121094 289.511719 C 163.496094 288.179688 161.804688 287.910156 160.464844 288.089844 C 159.484375 288.089844 158.503906 287.734375 157.613281 287.289062 C 153.78125 285.15625 151.285156 281.15625 150.75 276.800781 C 150.480469 272.621094 151.015625 268.535156 151.640625 264.445312 C 152.085938 261.777344 152.710938 259.023438 153.601562 256.445312 C 154.582031 253.867188 155.832031 251.554688 156.898438 248.976562 C 160.910156 239.199219 164.65625 228.621094 163.941406 217.867188 C 163.230469 210.488281 160.464844 203.554688 156.988281 197.066406 C 156.632812 196.265625 155.742188 194.84375 156.988281 194.398438 C 161.890625 193.246094 166.617188 191.199219 170.808594 188.355469 C 171.519531 188.089844 171.964844 187.554688 172.589844 187.554688 Z M 172.5 190.222656 C 172.679688 190.222656 172.859375 190.222656 173.035156 190.132812 C 173.304688 189.957031 173.125 190.042969 173.125 190.042969 C 170.71875 191.378906 168.222656 192.535156 165.636719 193.511719 C 163.140625 194.398438 159.574219 195.464844 157.523438 195.820312 C 157.703125 195.734375 157.878906 195.554688 157.878906 195.289062 C 158.058594 196 158.949219 197.601562 159.21875 198.3125 C 169.113281 217.957031 167.597656 230.132812 159.21875 249.957031 C 158.238281 252.355469 156.898438 254.84375 155.917969 257.332031 C 154.046875 262.84375 153.246094 268.890625 153.066406 274.753906 C 152.800781 279.289062 155.652344 284.621094 160.109375 285.867188 L 160.554688 285.867188 C 161.980469 285.777344 163.40625 286.042969 164.566406 286.933594 C 165.191406 287.378906 165.726562 288.089844 166.082031 288.890625 C 166.4375 289.6875 166.882812 290.753906 167.777344 290.578125 C 169.738281 289.957031 171.964844 290.222656 173.570312 291.644531 C 174.195312 292.265625 174.640625 292.621094 175.441406 292.355469 C 176.511719 291.554688 177.761719 290.933594 179.1875 290.84375 C 180.347656 290.667969 181.503906 291.554688 182.574219 290.84375 C 183.109375 290.488281 183.375 289.957031 183.824219 289.511719 C 185.160156 288.179688 187.121094 287.289062 189.082031 287.734375 C 190.332031 288.089844 191.042969 287.109375 191.488281 286.132812 C 192.378906 284.800781 193.894531 284.089844 195.410156 283.734375 C 196.75 283.199219 196.125 281.6875 195.769531 280.535156 C 194.789062 278.132812 193.628906 275.554688 192.738281 272.976562 C 191.847656 270.398438 191.132812 267.734375 190.777344 264.976562 C 189.882812 259.644531 190.332031 254.042969 190.6875 248.621094 C 191.042969 243.289062 190.953125 237.867188 190.597656 232.535156 C 189.4375 218.753906 185.339844 204.445312 175.800781 194.042969 C 174.996094 193.066406 173.925781 192.179688 173.035156 191.289062 C 172.945312 190.933594 172.769531 190.667969 172.5 190.222656 Z M 172.5 190.222656 "/>
<path style=" stroke:none;fill-rule:nonzero;fill:rgb(0%,0%,0%);fill-opacity:1;" d="M 159.664062 246.042969 C 143.882812 246.667969 127.125 244 114.285156 234.398438 C 113.75 234.042969 114.375 233.15625 114.910156 233.601562 C 124.449219 240.355469 136.21875 243.023438 147.804688 243.644531 C 151.640625 243.820312 155.652344 243.820312 159.394531 243.464844 C 161.265625 243.289062 161.535156 245.867188 159.664062 246.042969 Z M 167.242188 197.601562 C 171.253906 201.777344 173.390625 207.644531 173.125 213.421875 C 173.125 213.6875 172.679688 213.777344 172.589844 213.511719 C 171.34375 209.511719 169.914062 205.6875 168.042969 202.042969 C 167.417969 200.800781 166.796875 199.554688 166.261719 198.3125 C 166.171875 197.6875 166.882812 197.246094 167.242188 197.601562 Z M 176.957031 292.710938 C 173.390625 282.222656 175.175781 270.753906 177.492188 260.179688 C 179.632812 249.867188 181.503906 239.109375 180.257812 228.621094 C 180.078125 227.910156 181.238281 227.554688 181.414062 228.355469 C 182.929688 239.109375 181.414062 249.957031 179.453125 260.535156 C 178.382812 265.777344 177.582031 271.023438 177.492188 276.265625 C 177.402344 281.332031 177.671875 286.667969 179.542969 291.464844 C 180.167969 293.246094 177.761719 294.398438 176.957031 292.710938 Z M 80.320312 198.578125 C 83.441406 205.15625 87.1875 211.820312 92.535156 216.800781 C 92.980469 217.15625 92.445312 217.957031 91.910156 217.511719 C 85.847656 212.800781 81.570312 206.3125 77.824219 199.734375 C 77.113281 198.132812 79.609375 196.890625 80.320312 198.578125 Z M 164.476562 218.667969 C 159.574219 231.644531 145.667969 230.84375 134.96875 225.777344 C 134.613281 225.601562 134.433594 225.246094 134.613281 224.890625 C 134.789062 224.535156 135.148438 224.355469 135.503906 224.535156 C 138 225.511719 140.585938 226.398438 143.171875 226.84375 C 150.925781 228.535156 159.304688 226.042969 161.890625 217.957031 C 162.335938 216.179688 164.921875 216.976562 164.476562 218.667969 Z M 164.476562 218.667969 "/>
<path style=" stroke:none;fill-rule:nonzero;fill:rgb(100%,100%,100%);fill-opacity:1;" d="M 163.136719 218.3125 C 161.265625 227.464844 149.140625 232.976562 128.726562 224.710938 C 107.511719 216.179688 98.328125 195.820312 96.011719 189.777344 C 108.582031 166.3125 99.84375 150.042969 99.84375 150.042969 C 128.816406 147.554688 154.136719 181.332031 154.136719 181.332031 L 158.058594 198.042969 C 158.414062 199.464844 159.128906 200.710938 160.195312 201.601562 C 162.070312 204.890625 164.296875 212.445312 163.136719 218.3125 Z M 163.136719 218.3125 "/>
<path style=" stroke:none;fill-rule:nonzero;fill:rgb(0%,0%,0%);fill-opacity:1;" d="M 95.566406 190.042969 C 97.257812 187.464844 98.328125 184.445312 99.042969 181.511719 C 100.378906 175.378906 100.824219 169.15625 100.914062 162.933594 L 100.914062 160.621094 C 100.648438 158.3125 99.84375 155.910156 98.953125 153.777344 C 97.792969 150.933594 101.984375 149.15625 103.320312 152 C 103.5 152.355469 103.5 152.976562 103.5 153.332031 C 103.765625 165.421875 104.300781 180.976562 96.636719 191.023438 C 96.101562 191.554688 95.03125 190.753906 95.566406 190.042969 Z M 155.117188 181.15625 C 156.453125 181.957031 156.898438 183.023438 157.078125 184.089844 C 157.613281 186.222656 157.433594 188.535156 157.96875 190.753906 C 158.414062 192.890625 159.75 194.933594 160.109375 197.15625 C 160.554688 199.464844 161.890625 204.355469 162.425781 206.753906 C 162.605469 207.289062 162.25 207.910156 161.625 208 C 161.265625 208.089844 161 208 160.734375 207.820312 C 159.574219 206.84375 159.039062 205.867188 158.324219 204.621094 C 157.167969 202.488281 156.363281 200.535156 155.652344 198.132812 C 155.027344 196 155.292969 193.6875 154.757812 191.464844 C 154.3125 189.332031 153.066406 187.289062 152.621094 185.066406 C 152.351562 184 152.261719 182.84375 153.066406 181.511719 C 153.601562 180.976562 154.492188 180.800781 155.117188 181.15625 Z M 155.117188 181.15625 "/>
<path style=" stroke:none;fill-rule:nonzero;fill:rgb(0%,0%,0%);fill-opacity:1;" d="M 161.535156 204.621094 C 144.507812 203.734375 130.601562 198.398438 117.050781 174.3125 C 128.460938 184.355469 141.921875 188.179688 156.097656 189.957031 L 157.96875 198.132812 C 158.324219 199.554688 160.464844 203.734375 161.535156 204.621094 Z M 161.535156 204.621094 "/>
<path style=" stroke:none;fill-rule:nonzero;fill:rgb(0%,0%,0%);fill-opacity:1;" d="M 160.820312 201.332031 C 163.851562 207.023438 165.636719 214.132812 163.761719 220.445312 C 162.335938 224.890625 158.238281 228.179688 153.777344 229.421875 C 143.4375 232.179688 131.492188 227.820312 122.308594 222.933594 C 110.988281 216.621094 102.609375 206.042969 97.257812 194.488281 C 96.902344 193.601562 98.152344 192.890625 98.6875 193.777344 C 100.558594 197.511719 102.699219 201.15625 105.105469 204.445312 C 107.511719 207.820312 110.273438 210.933594 113.394531 213.6875 C 122.488281 221.867188 134.789062 226.933594 147.09375 226.933594 C 159.75 226.578125 164.566406 219.910156 161.625 207.644531 C 161.179688 205.6875 160.464844 203.644531 159.484375 201.957031 C 158.949219 201.246094 160.285156 200.445312 160.820312 201.332031 Z M 160.820312 201.332031 "/>
<path style=" stroke:none;fill-rule:nonzero;fill:rgb(100%,100%,100%);fill-opacity:1;" d="M 195.320312 94.578125 C 196.925781 102.042969 197.730469 108.089844 193.359375 128 C 189.082031 147.820312 199.511719 151.910156 174.816406 183.644531 C 164.746094 196.621094 140.316406 192.976562 120.527344 179.554688 C 113.839844 175.023438 110.988281 163.378906 105.996094 155.109375 C 102.074219 148.621094 100.289062 155.378906 95.121094 149.777344 C 88.078125 142.132812 79.609375 126.753906 83.796875 99.554688 C 90.574219 55.464844 125.609375 50.3125 151.550781 55.199219 C 177.671875 60.179688 191.042969 74.933594 195.320312 94.578125 Z M 195.320312 94.578125 "/>
<path style=" stroke:none;fill-rule:nonzero;fill:rgb(0%,0%,0%);fill-opacity:1;" d="M 99.578125 157.6875 C 97.527344 154.222656 94.851562 151.199219 92.355469 148 C 89.949219 144.710938 87.988281 141.066406 86.382812 137.332031 C 75.773438 111.378906 79.875 74.84375 105.90625 59.554688 C 116.695312 53.332031 129.710938 51.820312 141.832031 52.800781 C 167.773438 54.667969 191.578125 66.578125 197.195312 93.957031 C 200.226562 106.042969 196.125 118.488281 193.804688 130.3125 C 192.738281 136.179688 193.628906 142.222656 193.539062 148.265625 C 193.449219 154.398438 191.753906 160.535156 189.4375 166.222656 C 188.011719 170.132812 185.515625 173.601562 182.929688 176.800781 C 178.652344 181.957031 174.371094 187.199219 168.933594 191.199219 C 167.6875 192.089844 165.457031 192.535156 163.941406 192.710938 C 159.75 193.332031 155.652344 193.511719 151.460938 193.246094 C 135.058594 192.535156 117.496094 184.621094 110.898438 168.800781 C 110.632812 168.179688 111.523438 167.734375 111.878906 168.265625 C 120.4375 181.777344 136.128906 188.445312 151.730469 189.332031 C 156.542969 189.601562 161.445312 189.511719 166.171875 188.535156 C 168.488281 187.378906 170.539062 185.332031 172.5 183.464844 C 177.3125 178.667969 182.21875 173.511719 185.695312 167.644531 C 189.882812 159.734375 192.203125 151.109375 191.488281 142.132812 C 191.308594 138.132812 191.222656 133.957031 192.023438 129.957031 C 192.738281 125.957031 193.628906 122.132812 194.164062 118.042969 C 194.699219 114.132812 194.964844 110.132812 194.964844 106.222656 C 194.519531 94.753906 190.773438 82.933594 183.464844 74.042969 C 167.328125 54.042969 129.175781 48.800781 107.691406 62.488281 C 94.140625 70.84375 87.808594 86.488281 85.757812 101.6875 C 82.640625 119.910156 83.53125 137.867188 98.0625 151.109375 L 102.339844 155.554688 C 104.035156 157.511719 101.003906 159.820312 99.578125 157.6875 Z M 99.578125 157.6875 "/>
<path style=" stroke:none;fill-rule:nonzero;fill:rgb(100%,100%,100%);fill-opacity:1;" d="M 110.097656 129.421875 C 110.097656 129.421875 107.332031 116.089844 94.316406 117.6875 C 83.085938 119.109375 79.160156 145.957031 104.65625 153.421875 "/>
<path style=" stroke:none;fill-rule:nonzero;fill:rgb(0%,0%,0%);fill-opacity:1;" d="M 103.5 141.777344 C 101.449219 140.621094 100.023438 138.667969 99.933594 136.265625 C 100.023438 134.488281 100.289062 132.445312 99.84375 130.667969 C 99.578125 128.976562 97.792969 128.535156 96.457031 128.621094 C 95.03125 128.890625 94.140625 130.667969 93.871094 132.089844 C 93.871094 132.179688 93.78125 132.445312 93.78125 132.535156 C 93.695312 132.976562 92.980469 132.976562 92.800781 132.535156 C 91.644531 129.066406 94.230469 125.246094 97.972656 125.6875 C 103.234375 126.042969 103.945312 131.554688 102.964844 135.734375 C 102.429688 137.511719 103.144531 139.109375 104.125 140.621094 L 104.300781 140.890625 C 104.75 141.421875 104.035156 142.132812 103.5 141.777344 Z M 174.816406 120 C 176.15625 126.3125 178.652344 132.179688 181.769531 137.6875 C 184.535156 144.445312 177.402344 150.84375 171.074219 150.578125 C 170.359375 150.578125 170.269531 149.601562 170.894531 149.421875 C 174.90625 148.179688 178.5625 145.511719 179.1875 141.421875 C 179.453125 140.179688 179.097656 139.109375 178.472656 138.042969 C 175.53125 132.535156 173.75 126.222656 174.195312 120 C 174.195312 119.554688 174.816406 119.554688 174.816406 120 Z M 174.816406 120 "/>
<path style=" stroke:none;fill-rule:nonzero;fill:rgb(0%,0%,0%);fill-opacity:1;" d="M 109.652344 129.511719 C 107.601562 124.265625 103.144531 119.289062 97.171875 119.378906 C 96.636719 119.289062 95.746094 119.464844 95.210938 119.464844 C 93.695312 119.554688 92.445312 120.089844 91.285156 121.15625 C 85.582031 126.84375 86.5625 136.890625 91.199219 143.199219 C 92.800781 145.421875 94.851562 147.378906 97.171875 148.976562 C 99.488281 150.578125 102.074219 151.820312 104.835938 152.890625 C 105.460938 153.066406 105.195312 154.042969 104.570312 153.957031 C 98.597656 152.710938 92.890625 149.777344 88.96875 144.890625 C 82.90625 137.601562 81.660156 125.421875 88.878906 118.3125 C 90.484375 116.890625 92.714844 115.820312 94.941406 115.820312 C 95.65625 115.820312 96.726562 115.644531 97.4375 115.820312 C 101.183594 116 104.75 117.867188 107.066406 120.800781 C 109.117188 123.289062 110.273438 126.3125 110.632812 129.332031 C 110.632812 129.867188 109.828125 130.042969 109.652344 129.511719 Z M 109.652344 129.511719 "/>
<path style=" stroke:none;fill-rule:nonzero;fill:rgb(0%,0%,0%);fill-opacity:1;" d="M 204.058594 75.910156 C 199.421875 36.445312 160.109375 23.109375 167.6875 49.421875 C 167.6875 49.421875 157.34375 32.890625 134.078125 32 C 114.109375 31.289062 126.234375 45.421875 126.234375 45.421875 C 126.234375 45.421875 110.722656 36.535156 84.421875 49.867188 C 61.511719 61.511719 82.730469 71.734375 82.730469 71.734375 C 82.730469 71.734375 65.433594 80.890625 65.167969 100.621094 C 65.078125 105.777344 69.355469 113.6875 79.519531 111.109375 C 76.933594 130.753906 88.96875 146.84375 94.496094 153.421875 C 101.628906 161.957031 102.25 168.445312 102.25 168.445312 C 105.90625 166.398438 101.628906 157.246094 101.71875 152.445312 C 79.429688 143.910156 83.441406 119.109375 94.316406 117.6875 C 105.730469 116.265625 109.292969 126.398438 109.917969 128.890625 C 111.789062 126.667969 112.324219 118.042969 113.394531 108.890625 C 116.695312 107.820312 119.636719 106.667969 122.042969 105.15625 C 131.492188 99.554688 135.949219 89.867188 145.578125 84.179688 C 162.425781 74.132812 166.792969 96.800781 175.796875 88.445312 C 186.230469 78.84375 193.804688 86.488281 196.125 98.3125 C 197.015625 102.578125 202.453125 102.222656 203.253906 97.957031 C 204.503906 91.734375 205.039062 84.265625 204.058594 75.910156 Z M 204.058594 75.910156 "/>
<path style=" stroke:none;fill-rule:nonzero;fill:rgb(0%,0%,0%);fill-opacity:1;" d="M 145.753906 122.753906 L 145.753906 122.933594 L 145.667969 125.421875 C 145.578125 127.554688 143.792969 129.15625 141.65625 129.066406 C 139.515625 128.976562 137.910156 127.109375 138.089844 125.066406 L 138.179688 122.578125 C 138.179688 122.132812 138.355469 121.601562 138.535156 121.246094 L 145.667969 121.601562 C 145.667969 121.957031 145.753906 122.3125 145.753906 122.753906 Z M 183.019531 124.710938 L 182.929688 127.023438 C 182.839844 128.976562 181.148438 130.488281 179.1875 130.398438 C 177.226562 130.3125 175.710938 128.621094 175.796875 126.667969 L 175.886719 124.355469 C 175.886719 123.910156 175.976562 123.464844 176.15625 123.109375 L 182.839844 123.378906 C 182.929688 123.820312 183.019531 124.265625 183.019531 124.710938 Z M 154.671875 110.578125 C 156.632812 110.84375 158.148438 108.800781 157.433594 106.84375 C 157.078125 105.777344 156.453125 104.800781 155.472656 104.179688 C 152.441406 102.3125 141.121094 102.132812 135.148438 106.398438 C 129.796875 110.3125 145.753906 109.332031 154.671875 110.578125 Z M 179.363281 111.554688 C 177.757812 111.554688 176.777344 109.511719 177.582031 107.820312 C 178.027344 106.933594 178.652344 106.132812 179.542969 105.6875 C 182.304688 104.355469 189.707031 105.15625 193.003906 109.6875 C 195.945312 113.6875 186.761719 111.464844 179.363281 111.554688 Z M 179.363281 111.554688 "/>
<path style=" stroke:none;fill-rule:nonzero;fill:rgb(0%,0%,0%);fill-opacity:1;" d="M 151.460938 122.753906 L 136.75 122.488281 C 134.96875 122.398438 135.058594 119.734375 136.839844 119.820312 L 151.550781 120.890625 C 152.796875 120.976562 152.707031 122.753906 151.460938 122.753906 Z M 186.761719 124.265625 L 175.886719 124.445312 C 174.105469 124.445312 174.015625 121.867188 175.796875 121.777344 L 175.976562 121.777344 L 186.851562 122.933594 C 187.65625 123.023438 187.566406 124.179688 186.761719 124.265625 Z M 186.761719 124.265625 "/>
<path style=" stroke:none;fill-rule:nonzero;fill:rgb(0%,0%,0%);fill-opacity:1;" d="M 168.398438 161.332031 C 162.605469 159.910156 156.632812 161.15625 150.75 161.511719 C 150.125 161.511719 149.945312 160.710938 150.480469 160.445312 C 155.292969 157.601562 163.761719 155.378906 168.398438 159.378906 C 168.753906 159.820312 169.824219 160.800781 169.023438 161.332031 C 168.84375 161.421875 168.578125 161.421875 168.398438 161.332031 Z M 168.398438 161.332031 "/>
<path style=" stroke:none;fill-rule:nonzero;fill:rgb(0%,0%,0%);fill-opacity:1;" d="M 155.742188 140 C 155.742188 140 147.359375 145.246094 137.910156 145.15625 C 128.460938 145.066406 127.300781 137.6875 127.214844 133.6875 C 127.214844 133.6875 128.460938 139.464844 134.167969 141.601562 C 139.78125 143.734375 155.742188 140 155.742188 140 Z M 182.660156 139.023438 C 182.660156 139.023438 184.710938 141.511719 187.476562 143.289062 C 189.347656 144.535156 191.84375 143.199219 191.84375 140.976562 C 191.84375 140.976562 186.671875 141.246094 182.660156 139.023438 Z M 182.660156 139.023438 "/>
<path style=" stroke:none;fill-rule:nonzero;fill:rgb(0%,0%,0%);fill-opacity:1;" d="M 158.859375 116.265625 C 154.046875 115.820312 141.921875 114.84375 137.285156 114.398438 L 133.722656 114.132812 C 130.777344 113.957031 128.460938 116.445312 127.925781 119.289062 C 127.75 120.179688 127.75 121.6875 127.75 122.578125 L 127.75 126.222656 C 127.75 128.445312 127.660156 130.753906 128.460938 132.890625 C 129.886719 137.867188 134.433594 141.867188 139.78125 141.246094 C 140.316406 141.15625 143.617188 140.800781 144.242188 140.710938 L 151.460938 139.910156 C 153.777344 139.734375 155.917969 139.109375 157.96875 137.867188 C 160.820312 136.179688 163.585938 133.601562 163.40625 129.957031 L 163.585938 126.398438 C 163.761719 121.957031 165.011719 116.710938 158.859375 116.265625 Z M 159.128906 113.332031 C 163.316406 113.6875 166.171875 118.042969 165.902344 122.042969 C 165.902344 122.578125 165.726562 125.957031 165.636719 126.578125 C 165.636719 127.289062 165.457031 130.488281 165.367188 131.109375 C 164.921875 137.15625 158.148438 141.421875 152.621094 142.222656 C 149.765625 142.578125 143.792969 143.378906 140.941406 143.734375 C 140.230469 143.820312 139.25 143.910156 138.535156 144 C 138.179688 144 137.375 143.910156 137.019531 143.910156 C 129.441406 142.933594 124.628906 135.199219 124.804688 128 L 124.804688 122.578125 C 124.804688 121.957031 124.804688 120.355469 124.894531 119.734375 C 125.164062 116.621094 126.855469 113.601562 129.710938 111.910156 C 130.957031 111.199219 132.472656 110.84375 133.988281 110.933594 L 137.644531 111.289062 C 142.101562 111.820312 154.402344 112.976562 159.128906 113.332031 Z M 179.808594 114.753906 C 181.769531 114.488281 191.398438 113.421875 193.183594 113.246094 C 193.628906 113.246094 194.785156 113.066406 195.144531 113.066406 C 198.976562 112.535156 200.757812 116.710938 201.117188 119.820312 C 201.292969 122.578125 201.117188 125.246094 201.207031 127.910156 C 201.207031 129.777344 201.027344 131.644531 200.582031 133.421875 C 199.421875 138.222656 196.035156 143.289062 190.417969 141.6875 C 189.082031 141.421875 186.40625 141.066406 185.160156 140.800781 L 183.820312 140.535156 C 181.238281 140.089844 179.097656 138.3125 177.671875 136.355469 C 174.996094 133.246094 175.53125 129.066406 175.261719 125.332031 C 174.90625 121.601562 174.996094 115.820312 179.808594 114.753906 Z M 180.167969 117.332031 C 177.402344 118.578125 178.117188 122.753906 178.117188 125.246094 L 178.292969 130.578125 C 178.382812 133.957031 181.058594 137.332031 184.265625 138.222656 C 185.070312 138.398438 187.296875 138.84375 188.191406 139.023438 L 190.773438 139.554688 C 197.195312 141.601562 199.691406 132.710938 199.601562 127.820312 C 199.332031 123.734375 200.582031 118.84375 197.640625 115.554688 C 196.925781 114.84375 196.214844 114.667969 195.410156 114.84375 C 194.964844 114.933594 193.804688 115.109375 193.449219 115.199219 C 191.667969 115.554688 182.039062 117.066406 180.167969 117.332031 Z M 180.167969 117.332031 "/>
<path style=" stroke:none;fill-rule:nonzero;fill:rgb(0%,0%,0%);fill-opacity:1;" d="M 126.234375 123.023438 C 125.519531 124.621094 124.894531 124.445312 123.648438 124.445312 L 121.0625 124.355469 C 117.761719 124.179688 114.109375 123.910156 110.808594 123.464844 C 109.027344 123.199219 107.15625 122.933594 105.371094 122.488281 C 104.660156 122.3125 104.214844 121.601562 104.390625 120.890625 C 104.570312 120.265625 105.105469 119.820312 105.730469 119.910156 L 110.898438 120.179688 L 116.070312 120.355469 C 117.761719 120.445312 122.132812 120.535156 123.824219 120.621094 C 124.71875 120.621094 125.519531 120.710938 126.410156 120.445312 C 126.765625 120.355469 127.125 120.535156 127.214844 120.890625 C 127.300781 121.066406 127.214844 121.15625 127.214844 121.332031 Z M 164.210938 121.15625 C 167.417969 119.378906 175.886719 116.890625 177.492188 121.6875 C 178.207031 122.933594 176.332031 124.089844 175.53125 122.84375 C 175.53125 123.023438 175.085938 122.84375 174.90625 122.84375 C 171.519531 122.578125 168.042969 123.109375 164.65625 123.378906 C 163.230469 123.554688 162.960938 121.6875 164.210938 121.15625 Z M 164.210938 121.15625 "/>
</g>
</svg>